<svg width="77" height="95" viewBox="0 0 77 95" fill="none" xmlns="http://www.w3.org/2000/svg">
<path fill-rule="evenodd" clip-rule="evenodd" d="M51.4874 50.4499C54.4264 45.3556 54.4264 39.0813 51.4874 33.9872C50.0479 31.4578 47.972 29.3491 45.4671 27.8686H45.4316C40.3401 24.9323 34.0714 24.9323 28.9801 27.8686H28.9363C26.4534 29.3163 24.3884 31.384 22.9435 33.8697C20.0071 38.964 20.0071 45.2355 22.9435 50.3296C24.3939 52.8153 26.4589 54.8858 28.9445 56.3362H28.9992C34.0825 59.2561 40.3349 59.2561 45.4179 56.3362H45.508C47.9718 54.9158 50.0287 52.8891 51.4874 50.4499ZM45.3688 55.1563L44.3964 53.4709C44.2325 53.1896 43.8747 53.094 43.5934 53.2524C43.312 53.4108 43.211 53.7687 43.3694 54.05L44.3418 55.7354C42.3178 56.8252 40.0724 57.4453 37.7753 57.5463V55.5605C37.7944 55.3939 37.7398 55.23 37.6278 55.1044C37.5185 54.9787 37.3574 54.9077 37.1908 54.9077C37.0241 54.9077 36.8657 54.9787 36.7537 55.1044C36.6417 55.23 36.5898 55.3939 36.6062 55.5605V57.5463C34.309 57.4589 32.0583 56.8552 30.0288 55.7763L30.9985 54.05C31.1542 53.7687 31.0586 53.4163 30.7827 53.2524C30.5013 53.094 30.1462 53.1923 29.9851 53.4709L29.0127 55.1563V55.1536C27.0706 53.9271 25.4263 52.2855 24.1944 50.3434L25.8879 49.3656C26.1665 49.2044 26.2621 48.8493 26.1037 48.568C25.9398 48.2894 25.582 48.191 25.3007 48.3522L23.6153 49.33C22.5391 47.2978 21.9382 45.0471 21.8535 42.7498H23.7901C24.1152 42.7498 24.3774 42.4876 24.3774 42.1626C24.3774 41.8375 24.1152 41.5753 23.7901 41.5753H21.8453C21.93 39.2781 22.5337 37.0274 23.6071 34.9951L25.2925 35.9729C25.3854 36.0221 25.4837 36.0494 25.5875 36.0522C25.7978 36.0494 25.9917 35.9374 26.0983 35.7572C26.2567 35.4785 26.1638 35.1234 25.8879 34.9596L24.2026 33.9817C25.4317 32.0397 27.0789 30.398 29.0209 29.1716L29.9933 30.8569V30.8542C30.0971 31.0372 30.2938 31.1492 30.5041 31.1492C30.6024 31.1465 30.7008 31.1219 30.7909 31.0727C31.0613 30.9061 31.1542 30.5537 30.9985 30.2751L30.0261 28.5898H30.0289C32.0583 27.5108 34.3091 26.9072 36.6063 26.8198V28.7728C36.5899 28.9367 36.6418 29.1033 36.7538 29.229C36.8658 29.3519 37.0242 29.4229 37.1908 29.4229C37.3574 29.4229 37.5186 29.3519 37.6278 29.229C37.7398 29.1033 37.7945 28.9367 37.7753 28.7728V26.8143C40.0753 26.899 42.3233 27.5054 44.3556 28.5816L43.3695 30.2751C43.2902 30.409 43.2684 30.5701 43.3066 30.7204C43.3476 30.8706 43.4459 31.0017 43.5798 31.0782C43.6699 31.1274 43.771 31.1547 43.872 31.1574C44.0824 31.1547 44.2763 31.0427 44.3828 30.8624L45.3552 29.177C47.2946 30.4035 48.939 32.0479 50.1654 33.9872L48.4883 34.965V34.9678C48.2643 35.1016 48.155 35.3666 48.2233 35.6206C48.2889 35.8719 48.5129 36.0522 48.7751 36.0576C48.8789 36.0576 48.9772 36.0303 49.0674 35.9812L50.7609 35.0033C51.8316 37.0355 52.4353 39.2836 52.5227 41.5835H50.5861C50.261 41.5835 49.9988 41.8457 49.9988 42.1708C49.9988 42.4931 50.261 42.7581 50.5861 42.7581H52.5364C52.449 45.0553 51.8453 47.3033 50.7746 49.3383L49.0811 48.3604L49.0838 48.3577C48.8024 48.1993 48.4473 48.2976 48.2862 48.5762C48.207 48.71 48.1851 48.8685 48.2261 49.0187C48.2671 49.1689 48.3682 49.2946 48.502 49.3711L50.1791 50.3435C48.9554 52.2855 47.311 53.9299 45.3689 55.1536L45.3688 55.1563ZM63.3832 55.3393V55.3366C64.6343 52.698 63.6455 49.5376 61.1106 48.0845L59.8159 47.3361C59.163 46.9701 58.8079 46.2326 58.9282 45.4924C59.2641 43.2853 59.2641 41.04 58.9282 38.833C58.8025 38.0928 59.1603 37.3525 59.8159 36.9892L61.1106 36.2408C62.4108 35.5006 63.3586 34.2687 63.7465 32.8237C64.1316 31.3788 63.924 29.8382 63.1647 28.5489L61.9546 26.4511C60.4004 23.7579 56.9587 22.8346 54.2627 24.3861L52.9625 25.1346C52.3206 25.5224 51.5039 25.4596 50.9275 24.9816C49.1875 23.5858 47.24 22.4631 45.1586 21.6547C44.4566 21.3897 43.9949 20.7123 44.0059 19.9611V18.4915C43.9841 15.4132 41.4929 12.922 38.4118 12.8974H35.9862C32.8969 12.8974 30.3921 15.4022 30.3921 18.4915V19.9829C30.3976 20.7341 29.9332 21.4088 29.2312 21.6737C27.1498 22.4822 25.2077 23.6049 23.4677 25.0034C22.8887 25.4814 22.0719 25.5443 21.4273 25.1564L20.1325 24.408C17.4365 22.8647 14.0031 23.7852 12.4406 26.4702L11.2387 28.568C10.4821 29.86 10.2718 31.4006 10.6597 32.8456C11.0448 34.2905 11.9954 35.5197 13.2928 36.2599L14.5876 37.0083C15.2404 37.3771 15.5955 38.1146 15.4753 38.8548C15.1393 41.0646 15.1393 43.3099 15.4753 45.5196C15.5955 46.2571 15.2404 46.9919 14.5876 47.3579L13.3011 48.0845C12.0008 48.8248 11.0531 50.0567 10.6652 51.5016C10.28 52.9466 10.4876 54.4871 11.2443 55.7764L12.4462 57.8742H12.4489C13.9949 60.5757 17.4366 61.5153 20.1408 59.972L21.4355 59.2236H21.4328C22.0774 58.8357 22.8969 58.8985 23.476 59.3793C25.216 60.7751 27.158 61.8977 29.2367 62.7062C29.9414 62.9712 30.4058 63.6486 30.3976 64.3998V65.8884C30.3894 67.3771 30.974 68.8111 32.0256 69.8682C33.0745 70.9226 34.5031 71.5181 35.9917 71.5181H38.4036C41.4984 71.4935 43.995 68.9832 43.9977 65.8884V64.3424C43.9868 63.594 44.4512 62.9193 45.1531 62.6571C46.1474 62.261 47.1116 61.7939 48.0403 61.2585C48.0403 61.5727 47.9912 61.8868 47.9912 62.2091V62.2118C47.9884 65.3422 49.5754 68.2648 52.2031 69.9695C54.8308 71.6739 58.1441 71.9307 61.004 70.6496C63.8639 69.3685 65.877 66.7272 66.3577 63.6325C66.8357 60.535 65.7131 57.4075 63.3749 55.3232L63.3832 55.3393ZM44.7681 61.5589C43.61 61.9987 42.8506 63.1186 42.8725 64.356V65.8473C42.8698 68.3057 40.8785 70.297 38.4202 70.2997H35.9864C33.528 70.297 31.534 68.3057 31.5313 65.8473V64.3423C31.5504 63.1022 30.7911 61.9823 29.6301 61.5453C27.6607 60.7804 25.8197 59.7152 24.1753 58.3931C23.222 57.6065 21.8781 57.5027 20.8183 58.1336L19.5181 58.8821C18.4993 59.4748 17.2837 59.6387 16.1447 59.3355C15.003 59.0323 14.0306 58.2866 13.4405 57.2678L12.2305 55.17C11.0095 53.0394 11.7388 50.3243 13.8611 49.0924L15.1559 48.344H15.1532C16.2321 47.7431 16.8166 46.5275 16.609 45.3093C16.3031 43.2224 16.3031 41.1028 16.609 39.016C16.8166 37.7977 16.2321 36.5822 15.1532 35.9813L13.8611 35.2247C11.7387 33.9928 11.0095 31.2777 12.2304 29.1498L13.4405 27.0521C14.6724 24.9269 17.3902 24.1977 19.5181 25.4214L20.8183 26.1698C21.8781 26.8008 23.222 26.6997 24.1753 25.913C25.8197 24.5883 27.6607 23.523 29.6301 22.7582C30.7911 22.3211 31.5504 21.2012 31.5313 19.9611V18.4915C31.534 16.0332 33.528 14.0419 35.9864 14.0392H38.3983C40.8566 14.0419 42.8479 16.0332 42.8533 18.4915V19.9829C42.8315 21.2203 43.5881 22.3402 44.7463 22.78C46.7184 23.5448 48.5594 24.6074 50.2092 25.9321C51.1598 26.7188 52.5037 26.8226 53.5635 26.1916L54.8638 25.4432H54.8665C55.8826 24.8477 57.0981 24.6893 58.2371 25.0034C59.3844 25.3093 60.3595 26.0659 60.9413 27.1012L62.1514 29.199C63.3724 31.3269 62.6458 34.042 60.5235 35.2738L59.2287 36.0223C58.1497 36.6259 57.5652 37.8387 57.7674 39.0569C58.0842 41.1438 58.0842 43.2661 57.7674 45.3503C57.5652 46.5686 58.1498 47.7841 59.2287 48.385L60.5235 49.1334C62.4273 50.2369 63.2413 52.5696 62.4328 54.6155C59.9772 52.9493 56.8715 52.5641 54.0829 53.5829C51.2967 54.6018 49.1717 56.899 48.3686 59.7561C47.2296 60.4717 46.0246 61.0754 44.7681 61.5589ZM57.2514 70.2857C53.9845 70.2884 51.04 68.3245 49.7889 65.3089C48.5378 62.2933 49.2289 58.8189 51.537 56.5108C53.8451 54.2027 57.3196 53.5116 60.3351 54.7626C63.3507 56.0137 65.3147 58.9582 65.3119 62.2252C65.3092 66.6748 61.7007 70.2829 57.2514 70.2857ZM62.7198 60.4415L54.7874 65.0222C54.7 65.0714 54.5989 65.0987 54.4951 65.0987C54.446 65.1042 54.3968 65.1042 54.3476 65.0987C54.1974 65.0577 54.069 64.9594 53.9925 64.8256L51.5669 60.63H51.5642C51.4795 60.4961 51.4495 60.3322 51.4877 60.1765C51.5232 60.0208 51.6216 59.887 51.7609 59.8051C52.0422 59.6466 52.3973 59.7422 52.5584 60.0208L54.6562 63.7138L62.0747 59.4281C62.2086 59.3352 62.3752 59.3052 62.5363 59.3407C62.6948 59.3762 62.8313 59.4772 62.9133 59.6193C62.9952 59.7586 63.0143 59.928 62.9652 60.0836C62.9187 60.2393 62.8095 60.3705 62.662 60.4415L62.7198 60.4415ZM38.5379 42.162C38.5407 42.7903 38.1091 43.3339 37.4972 43.4759C36.8854 43.6152 36.2571 43.3147 35.9867 42.7493H28.0899C27.7676 42.7493 27.5026 42.4871 27.5026 42.162C27.5026 41.837 27.7676 41.5748 28.0899 41.5748H35.9867C36.1232 41.3071 36.339 41.0913 36.6067 40.9602V32.162C36.6395 31.8643 36.8935 31.6403 37.1912 31.6403C37.4917 31.6403 37.743 31.8643 37.7758 32.162V40.9602C38.2401 41.1787 38.5379 41.6485 38.5379 42.162Z" fill="white"/>
</svg>
