<svg width="77" height="95" viewBox="0 0 77 95" fill="none" xmlns="http://www.w3.org/2000/svg">
<path d="M31.939 26.9188V24.5889H29.7538V26.9052C27.8582 27.3832 26.4541 29.1013 26.4541 31.1445C26.4541 33.5591 28.4099 35.5149 30.8245 35.5149C32.0318 35.5149 33.0097 36.4927 33.0097 37.7001C33.0097 38.9074 32.0318 39.8853 30.8245 39.8853C29.6171 39.8853 28.6393 38.9074 28.6393 37.7001V37.558H26.4541V37.7001C26.4541 39.7378 27.8472 41.4477 29.7319 41.9339V44.2557H31.9171V41.9339C33.8018 41.4477 35.1949 39.7378 35.1949 37.7001C35.1949 35.2855 33.2391 33.3297 30.8245 33.3297C29.6171 33.3297 28.6393 32.3518 28.6393 31.1445C28.6393 29.9371 29.6171 28.9593 30.8245 28.9593C32.0318 28.9593 33.0097 29.9371 33.0097 31.1445V31.8574H35.1949V31.1445C35.1949 29.115 33.8127 27.4106 31.939 26.9188Z" fill="white"/>
<path fill-rule="evenodd" clip-rule="evenodd" d="M45.0289 34.422C45.0289 42.267 38.67 48.6254 30.8255 48.6254C22.981 48.6254 16.6221 42.2665 16.6221 34.422C16.6221 26.5775 22.981 20.2186 30.8255 20.2186C38.67 20.2186 45.0289 26.5775 45.0289 34.422ZM42.8437 34.422C42.8437 41.0595 37.4627 46.4409 30.8248 46.4409C24.1869 46.4409 18.8059 41.0599 18.8059 34.422C18.8059 27.7841 24.1869 22.4031 30.8248 22.4031C37.4627 22.4031 42.8437 27.7841 42.8437 34.422Z" fill="white"/>
<path fill-rule="evenodd" clip-rule="evenodd" d="M30.8247 55.1818C42.2891 55.1818 51.5844 45.8865 51.5844 34.422C51.5844 22.9576 42.2891 13.6623 30.8247 13.6623C19.3602 13.6623 10.0649 22.9576 10.0649 34.422C10.0649 45.8865 19.3602 55.1818 30.8247 55.1818ZM30.8247 52.9966C41.0843 52.9966 49.3985 44.6816 49.3985 34.4227C49.3985 24.1639 41.0836 15.8489 30.8247 15.8489C20.5658 15.8489 12.2508 24.1639 12.2508 34.4227C12.2508 44.6816 20.5658 52.9966 30.8247 52.9966Z" fill="white"/>
<path fill-rule="evenodd" clip-rule="evenodd" d="M50.7615 49.7241C54.0174 45.4848 55.9541 40.1805 55.9541 34.4221C55.9541 20.5431 44.7029 9.29196 30.824 9.29196C16.945 9.29196 5.69385 20.5431 5.69385 34.4221C5.69385 48.3011 16.945 59.5522 30.824 59.5522C36.582 59.5522 41.8863 57.6156 46.1259 54.3596L66.7458 74.9823L71.3839 70.3442L50.7615 49.7241ZM30.8241 57.367C43.4955 57.367 53.7683 47.0941 53.7683 34.4228C53.7683 21.7514 43.4955 11.4786 30.8241 11.4786C18.1528 11.4786 7.87988 21.7514 7.87988 34.4228C7.87988 47.0941 18.1528 57.367 30.8241 57.367ZM49.349 51.4014C48.8573 51.9395 48.3411 52.4558 47.803 52.9474L66.746 71.8905L68.292 70.3445L49.349 51.4014Z" fill="white"/>
</svg>
