<svg width="78" height="96" viewBox="0 0 78 96" fill="none" xmlns="http://www.w3.org/2000/svg">
<path fill-rule="evenodd" clip-rule="evenodd" d="M58.1308 38.5305C58.1308 37.6564 59.461 37.6564 59.461 38.5305V42.0569C61.6981 42.5731 62.5258 45.3702 60.8814 47.0145C60.4962 47.3997 60.0073 47.6755 59.461 47.8039V49.5166C60.3652 49.7405 61.1136 50.3934 61.1136 51.4586V53.9825C62.4548 53.4745 64.3805 54.0672 64.4679 55.7171C64.9432 55.5368 65.4894 55.4958 65.9975 55.5859L65.9948 24.5834H56.0765C55.7514 24.5834 55.4537 24.4496 55.2379 24.2338L55.2352 24.2365C55.0194 24.0207 54.8855 23.723 54.8855 23.3952L54.8883 13.0783H25.6122V66.5579H55.219L51.261 62.0673C49.5757 60.1553 52.8863 57.249 54.6973 59.3085L56.4264 61.2752V51.4611C56.4264 50.3603 57.2048 49.6993 58.1308 49.4998V47.8036C55.8937 47.2873 55.0688 44.4875 56.7105 42.8459C57.0956 42.4608 57.5845 42.1849 58.1308 42.0565L58.1308 38.5305ZM24.2823 49.2516C19.3519 48.9102 15.4898 44.802 15.4898 39.8171C15.4898 34.8322 19.3521 30.7239 24.2823 30.3827V22.251H22.0971C22.0425 22.251 22.0015 22.2919 22.0015 22.3466V26.8317C22.0015 27.4599 21.5972 28.0063 20.9908 28.192L19.3957 28.7984C18.8548 29.0442 18.2211 28.9268 17.8033 28.5088L14.6757 25.3812L14.6784 25.3785L14.5418 25.3812L10.5101 29.4129V29.4102L10.502 29.5358L13.3482 32.3793L13.3454 32.382C13.7989 32.8355 13.8945 33.5238 13.5803 34.0838C13.2498 34.6738 12.9685 35.2884 12.7445 35.9221C12.5424 36.4957 12.0097 36.8726 11.4033 36.8726H7.47543C7.45084 36.8726 7.42626 36.8836 7.40714 36.9V36.8972C7.39075 36.9136 7.37982 36.9382 7.37982 36.9655V42.6661C7.37982 42.7235 7.42626 42.7617 7.47543 42.7617H11.4006C12.0097 42.7617 12.5396 43.1387 12.7418 43.7123C12.9658 44.3487 13.2471 44.9606 13.5776 45.5506C13.8917 46.1105 13.7961 46.8016 13.3427 47.255L10.5101 50.0876V50.2215L14.5418 54.2531L14.6647 54.2641L17.8032 51.1256L17.806 51.1283C18.2266 50.7076 18.8576 50.5902 19.3984 50.8388L20.9935 51.4452C21.5999 51.6309 22.0042 52.1772 22.0042 52.8054V57.2906L22.0998 57.3862H24.285L24.2823 49.2516ZM24.2823 31.7155V47.9188C20.0894 47.5801 16.8198 44.0674 16.8198 39.8171C16.8198 35.567 20.0894 32.0539 24.2823 31.7155ZM24.2823 58.7105H22.0971C21.3132 58.7105 20.674 58.0714 20.674 57.2874V52.8022L20.6084 52.7094C19.9965 52.5209 19.4175 52.3051 18.8521 52.0456L18.7428 52.0647L18.7455 52.0675L15.6179 55.1951C15.0662 55.7468 14.1621 55.7523 13.6048 55.1951L9.57316 51.1634C9.01866 50.6089 9.01866 49.7048 9.57316 49.1503L12.4057 46.3177L12.4221 46.203C12.0561 45.5529 11.7447 44.8645 11.4934 44.1571L11.4033 44.0943L7.47539 44.0888C6.69144 44.0888 6.05225 43.4469 6.05225 42.6657V36.9651C6.05225 36.5799 6.21341 36.2085 6.47017 35.9599L6.46744 35.9571C6.7242 35.7004 7.08203 35.5392 7.47535 35.5392C7.85503 35.5392 11.4033 35.5638 11.4579 35.5228L11.9086 34.4357C12.067 34.0915 12.2363 33.7555 12.4194 33.4278L12.4057 33.3103L12.403 33.313L9.56766 30.4777C9.01317 29.9232 9.0159 29.0027 9.5704 28.4646L9.56766 28.4619L13.5993 24.4302C14.1593 23.8703 15.0771 23.8785 15.6124 24.433L15.6152 24.4302L18.7892 27.5878L19.7152 27.2163L20.6548 26.8804C20.663 26.8667 20.6685 26.8476 20.6685 26.823V22.3379C20.6685 21.5566 21.3104 20.9147 22.0916 20.9147H24.2768L24.2823 12.9305C24.2823 12.2777 24.8122 11.7451 25.4678 11.7451H55.0473C55.3559 11.7451 55.6673 11.8707 55.8831 12.092L55.8858 12.0892L66.9782 23.1844C67.1995 23.4057 67.3251 23.7089 67.3251 24.023V56.2625C67.612 56.5657 67.7977 56.9591 67.8223 57.448C68.4123 57.224 69.1252 57.2131 69.7234 57.4097C70.5402 57.6802 71.182 58.3084 71.182 59.2972V65.5387L71.0782 66.0467L69.5622 69.6769V72.5777C69.5622 73.307 68.9668 73.9025 68.2375 73.9025L59.6687 73.9052C58.9394 73.9052 58.344 73.3097 58.344 72.5804V70.1002L56.3909 67.885H25.4674C24.8146 67.885 24.2819 67.3551 24.2819 66.6995L24.2823 58.7105ZM58.7238 29.4149C58.9778 29.1499 59.3957 29.1445 59.6607 29.3958C59.9256 29.6498 59.9311 30.0705 59.6798 30.3327L57.9344 32.1382C57.6612 32.4222 57.2078 32.4113 56.9401 32.0944L56.0988 31.1357C55.8584 30.8598 55.8857 30.4419 56.1616 30.2015C56.4375 29.9612 56.8554 29.9885 57.0958 30.2644L57.4782 30.7014L58.7238 29.4149ZM34.5307 29.4149C34.7847 29.1499 35.2054 29.1445 35.4676 29.3958C35.7325 29.6498 35.738 30.0705 35.4867 30.3327L33.7413 32.1382C33.4681 32.4222 33.0146 32.4113 32.7497 32.0944L31.9084 31.1357C31.668 30.8598 31.6954 30.4419 31.9712 30.2015C32.2471 29.9612 32.665 29.9885 32.9054 30.2644L33.2878 30.7014L34.5307 29.4149ZM46.6286 29.4149C46.8827 29.1499 47.3006 29.1445 47.5655 29.3958C47.8305 29.6498 47.8359 30.0705 47.5846 30.3327L45.8392 32.1382C45.5661 32.4222 45.1126 32.4113 44.8476 32.0944L44.0064 31.1357C43.766 30.8598 43.7933 30.4419 44.0692 30.2015C44.3451 29.9612 44.763 29.9885 45.0033 30.2644L45.3857 30.7014L46.6286 29.4149ZM58.7944 43.31C59.6876 43.31 60.4142 44.0338 60.4142 44.9297C60.4142 46.3692 58.666 47.0903 57.6499 46.0742C56.6338 45.0581 57.3577 43.31 58.7944 43.31ZM50.799 46.626C53.0361 47.1423 53.861 49.9393 52.2194 51.5836C51.8343 51.9688 51.3453 52.2447 50.799 52.373V55.8994C50.799 56.7735 49.4688 56.7735 49.4688 55.8994V52.373C47.2318 51.8568 46.4041 49.0597 48.0485 47.4154C48.4336 47.0303 48.9198 46.7544 49.4688 46.626V38.5299C49.4688 37.6559 50.799 37.6559 50.799 38.5299V46.626ZM51.2771 48.3523C51.908 48.9833 51.908 50.0104 51.2771 50.6413C50.261 51.6574 48.5128 50.9336 48.5128 49.4968C48.5155 48.0573 50.2637 47.3363 51.2771 48.3523ZM42.1377 42.0563C44.3748 42.5725 45.2024 45.3696 43.558 47.0139C43.1729 47.399 42.6867 47.6749 42.1377 47.8033V55.8966C42.1377 56.7706 40.8075 56.7706 40.8075 55.8966V47.8033C38.5704 47.287 37.7427 44.49 39.3871 42.8457C39.7723 42.4605 40.2612 42.1846 40.8075 42.0563V38.5299C40.8075 37.6558 42.1377 37.6558 42.1377 38.5299V42.0563ZM42.6184 43.7853C43.2494 44.4163 43.2494 45.4433 42.6184 46.0743C41.6023 47.0931 39.8542 46.3666 39.8542 44.9298C39.8542 43.4903 41.6023 42.7692 42.6184 43.7853ZM33.4763 44.3398C35.7133 44.8561 36.541 47.6531 34.8966 49.2975C34.5115 49.6826 34.0253 49.9585 33.4763 50.0868V55.8967C33.4763 56.7708 32.1461 56.7708 32.1461 55.8967V50.0868C29.909 49.5706 29.0841 46.7735 30.7257 45.1292C31.1109 44.7441 31.5971 44.4682 32.1461 44.3398V38.5299C32.1461 37.6558 33.4763 37.6558 33.4763 38.5299V44.3398ZM33.957 46.0689C34.588 46.6999 34.588 47.7269 33.957 48.3579C32.9409 49.374 31.1928 48.6501 31.1928 47.2134C31.1928 45.7766 32.9409 45.0528 33.957 46.0689ZM57.169 66.7601L52.2578 61.1878C51.7525 60.6169 53.0363 59.4287 53.7001 60.1826L56.5764 63.4495C56.9943 63.9439 57.7564 63.638 57.7564 63.0316V51.4609C57.7564 50.5076 59.7831 50.5431 59.7831 51.4609V59.866H61.1133V55.8343C61.1133 54.8783 63.1401 54.9165 63.1401 55.8343V60.2758H64.4703V57.5661C64.4703 56.6128 66.497 56.6456 66.497 57.5661V62.0076L67.8245 62.0103V59.3006C67.8245 58.6478 68.7341 58.4866 69.3077 58.6751C69.6136 58.7789 69.8513 58.9838 69.8513 59.3034V65.5476L68.3353 69.1777L68.256 69.4263C68.2041 69.6913 68.2315 72.1196 68.2315 72.5812L59.6739 72.5757V70.0955C59.6739 69.8005 59.6001 69.5601 59.4198 69.317L57.169 66.7601ZM55.3308 26.9734H60.4687C61.1461 26.9734 61.7034 27.5306 61.7034 28.208V33.346C61.7034 34.0234 61.1461 34.5806 60.4687 34.5806H55.3308C54.6533 34.5806 54.0961 34.0234 54.0961 33.346V28.208C54.0961 27.5306 54.6534 26.9734 55.3308 26.9734ZM60.3758 28.3009V33.2531H55.4236V28.3009H60.3758ZM43.2327 26.9734H48.3706C48.7093 26.9734 49.018 27.1127 49.242 27.3367L49.2447 27.334C49.4687 27.5579 49.608 27.8666 49.608 28.208V33.346C49.608 34.0234 49.0508 34.5806 48.3734 34.5806H43.2354C42.5553 34.5806 42.0008 34.0234 42.0008 33.346V28.208C41.9981 27.5279 42.5525 26.9734 43.2327 26.9734ZM48.2777 28.3009V33.2531H43.3255V28.3009H48.2777ZM31.1374 26.9734H36.2753C36.9528 26.9734 37.51 27.5306 37.51 28.208V33.346C37.51 34.0234 36.9527 34.5806 36.2753 34.5806H31.1374C30.46 34.5806 29.9028 34.0234 29.9028 33.346V28.208C29.9 27.5306 30.46 26.9734 31.1374 26.9734ZM36.1824 28.3009V33.2531H31.2302V28.3009H36.1824ZM65.1634 23.2557H56.2149V14.3072L65.1634 23.2557Z" fill="white"/>
</svg>
