<svg width="560" height="172" viewBox="0 0 560 172" fill="none" xmlns="http://www.w3.org/2000/svg">
<mask id="path-1-inside-1_109_416" fill="white">
<path d="M38.381 2.44173C37.4827 1.9342 36.553 1.48058 35.6009 1.08535C34.6217 0.681122 33.6158 0.33075 32.5918 0.0522869C31.9585 -0.122869 31.3117 0.173553 31.0243 0.734963C30.5078 1.76803 29.7128 2.62585 28.7427 3.2187H28.7337C27.795 3.79806 26.6857 4.13941 25.4955 4.13941C24.3053 4.13941 23.1915 3.79808 22.2573 3.2187C21.2781 2.62576 20.4832 1.75897 19.9577 0.734963C19.6613 0.142109 18.9787 -0.13186 18.3589 0.0612665C17.3438 0.348709 16.3558 0.690041 15.3946 1.08527H15.3857C14.4246 1.48953 13.4589 1.96112 12.5157 2.49558C11.9588 2.81441 11.7118 3.48816 11.9049 4.081H11.8959C12.2552 5.17685 12.3046 6.35807 12.0351 7.46742C11.7836 8.53187 11.2312 9.55589 10.3913 10.3958C9.5514 11.2356 8.5319 11.7881 7.45399 12.0486C6.3402 12.3135 5.16792 12.2686 4.07654 11.9093C3.42077 11.6938 2.72014 12.0081 2.44168 12.619C1.92516 13.5262 1.48052 14.4559 1.08528 15.3901L1.05834 15.471C0.663102 16.4231 0.330753 17.4022 0.0522894 18.4083C-0.122867 19.0416 0.173551 19.6883 0.734962 19.9758C1.75906 20.4923 2.62586 21.2873 3.2187 22.2574C3.79808 23.205 4.13043 24.3144 4.13043 25.5046C4.13043 26.6947 3.79808 27.8176 3.2187 28.7517C2.62577 29.7219 1.75897 30.5168 0.734962 31.0423C0.142107 31.3387 -0.13186 32.0214 0.061267 32.6412C0.339719 33.6562 0.690041 34.6443 1.08528 35.6054C1.49851 36.5845 1.96113 37.5501 2.49559 38.4843C2.81442 39.0412 3.47917 39.2882 4.08101 39.0951V39.1041C5.17685 38.7448 6.34912 38.6954 7.45846 38.9649C8.53189 39.2164 9.55589 39.7688 10.3958 40.6087C11.2357 41.4486 11.7881 42.4681 12.0396 43.5371C12.3136 44.6598 12.2597 45.8321 11.9004 46.9235C11.6938 47.5792 12.0082 48.2799 12.619 48.5583C13.5263 49.0748 14.456 49.5195 15.3902 49.9147C16.3603 50.3189 17.3663 50.6603 18.4083 50.9477C19.0416 51.1229 19.6884 50.8264 19.9668 50.265C20.4923 49.2409 21.2873 48.3741 22.2574 47.7813H22.2664C23.2051 47.2019 24.3145 46.8696 25.5046 46.8696C26.6947 46.8696 27.8086 47.2019 28.7518 47.7813C29.722 48.3742 30.5169 49.241 31.0334 50.265C31.3388 50.8579 32.0215 51.1319 32.6412 50.9387C33.6563 50.6603 34.6443 50.31 35.6055 49.9147H35.6145C36.5757 49.5105 37.5412 49.0389 38.4754 48.5044C39.0413 48.1856 39.2884 47.5118 39.0952 46.919C38.7359 45.8232 38.6955 44.6509 38.956 43.5416C39.2165 42.4681 39.7689 41.4441 40.6088 40.6042C41.4487 39.7644 42.4682 39.2119 43.5372 38.9604C44.6509 38.6864 45.8322 38.7403 46.9236 39.0996C47.5613 39.3017 48.2529 39.0008 48.5404 38.417C49.0569 37.5097 49.5105 36.571 49.9147 35.6099C50.3189 34.6397 50.6603 33.6337 50.9477 32.5918C51.1229 31.9585 50.8264 31.3117 50.265 31.0333C49.2409 30.5078 48.3741 29.7128 47.7813 28.7427V28.7337C47.2019 27.795 46.8606 26.6857 46.8606 25.4955C46.8606 24.3052 47.2019 23.1915 47.7813 22.2573C48.3742 21.2781 49.241 20.4832 50.265 19.9667C50.8579 19.6613 51.1319 18.9787 50.9387 18.3589C50.6513 17.3349 50.31 16.3378 49.9147 15.3857C49.5015 14.4065 49.0299 13.4409 48.5044 12.5157C48.1856 11.9498 47.5118 11.7118 46.919 11.9049C45.8231 12.2642 44.6419 12.3046 43.5326 12.0441C42.4681 11.7836 41.4441 11.2312 40.6042 10.3914C39.7643 9.55145 39.2119 8.53193 38.9514 7.46301C38.6864 6.34922 38.7313 5.16797 39.0906 4.07659C39.3062 3.42083 38.9918 2.72019 38.381 2.44173Z"/>
</mask>
<path d="M38.381 2.44173C37.4827 1.9342 36.553 1.48058 35.6009 1.08535C34.6217 0.681122 33.6158 0.33075 32.5918 0.0522869C31.9585 -0.122869 31.3117 0.173553 31.0243 0.734963C30.5078 1.76803 29.7128 2.62585 28.7427 3.2187H28.7337C27.795 3.79806 26.6857 4.13941 25.4955 4.13941C24.3053 4.13941 23.1915 3.79808 22.2573 3.2187C21.2781 2.62576 20.4832 1.75897 19.9577 0.734963C19.6613 0.142109 18.9787 -0.13186 18.3589 0.0612665C17.3438 0.348709 16.3558 0.690041 15.3946 1.08527H15.3857C14.4246 1.48953 13.4589 1.96112 12.5157 2.49558C11.9588 2.81441 11.7118 3.48816 11.9049 4.081H11.8959C12.2552 5.17685 12.3046 6.35807 12.0351 7.46742C11.7836 8.53187 11.2312 9.55589 10.3913 10.3958C9.5514 11.2356 8.5319 11.7881 7.45399 12.0486C6.3402 12.3135 5.16792 12.2686 4.07654 11.9093C3.42077 11.6938 2.72014 12.0081 2.44168 12.619C1.92516 13.5262 1.48052 14.4559 1.08528 15.3901L1.05834 15.471C0.663102 16.4231 0.330753 17.4022 0.0522894 18.4083C-0.122867 19.0416 0.173551 19.6883 0.734962 19.9758C1.75906 20.4923 2.62586 21.2873 3.2187 22.2574C3.79808 23.205 4.13043 24.3144 4.13043 25.5046C4.13043 26.6947 3.79808 27.8176 3.2187 28.7517C2.62577 29.7219 1.75897 30.5168 0.734962 31.0423C0.142107 31.3387 -0.13186 32.0214 0.061267 32.6412C0.339719 33.6562 0.690041 34.6443 1.08528 35.6054C1.49851 36.5845 1.96113 37.5501 2.49559 38.4843C2.81442 39.0412 3.47917 39.2882 4.08101 39.0951V39.1041C5.17685 38.7448 6.34912 38.6954 7.45846 38.9649C8.53189 39.2164 9.55589 39.7688 10.3958 40.6087C11.2357 41.4486 11.7881 42.4681 12.0396 43.5371C12.3136 44.6598 12.2597 45.8321 11.9004 46.9235C11.6938 47.5792 12.0082 48.2799 12.619 48.5583C13.5263 49.0748 14.456 49.5195 15.3902 49.9147C16.3603 50.3189 17.3663 50.6603 18.4083 50.9477C19.0416 51.1229 19.6884 50.8264 19.9668 50.265C20.4923 49.2409 21.2873 48.3741 22.2574 47.7813H22.2664C23.2051 47.2019 24.3145 46.8696 25.5046 46.8696C26.6947 46.8696 27.8086 47.2019 28.7518 47.7813C29.722 48.3742 30.5169 49.241 31.0334 50.265C31.3388 50.8579 32.0215 51.1319 32.6412 50.9387C33.6563 50.6603 34.6443 50.31 35.6055 49.9147H35.6145C36.5757 49.5105 37.5412 49.0389 38.4754 48.5044C39.0413 48.1856 39.2884 47.5118 39.0952 46.919C38.7359 45.8232 38.6955 44.6509 38.956 43.5416C39.2165 42.4681 39.7689 41.4441 40.6088 40.6042C41.4487 39.7644 42.4682 39.2119 43.5372 38.9604C44.6509 38.6864 45.8322 38.7403 46.9236 39.0996C47.5613 39.3017 48.2529 39.0008 48.5404 38.417C49.0569 37.5097 49.5105 36.571 49.9147 35.6099C50.3189 34.6397 50.6603 33.6337 50.9477 32.5918C51.1229 31.9585 50.8264 31.3117 50.265 31.0333C49.2409 30.5078 48.3741 29.7128 47.7813 28.7427V28.7337C47.2019 27.795 46.8606 26.6857 46.8606 25.4955C46.8606 24.3052 47.2019 23.1915 47.7813 22.2573C48.3742 21.2781 49.241 20.4832 50.265 19.9667C50.8579 19.6613 51.1319 18.9787 50.9387 18.3589C50.6513 17.3349 50.31 16.3378 49.9147 15.3857C49.5015 14.4065 49.0299 13.4409 48.5044 12.5157C48.1856 11.9498 47.5118 11.7118 46.919 11.9049C45.8231 12.2642 44.6419 12.3046 43.5326 12.0441C42.4681 11.7836 41.4441 11.2312 40.6042 10.3914C39.7643 9.55145 39.2119 8.53193 38.9514 7.46301C38.6864 6.34922 38.7313 5.16797 39.0906 4.07659C39.3062 3.42083 38.9918 2.72019 38.381 2.44173Z" stroke="url(#paint0_linear_109_416)" stroke-width="2" mask="url(#path-1-inside-1_109_416)"/>
<mask id="path-2-inside-2_109_416" fill="white">
<path d="M282.371 106.25C281.543 105.782 280.686 105.364 279.809 105C278.906 104.628 277.979 104.305 277.036 104.048C276.452 103.887 275.856 104.16 275.591 104.677C275.115 105.629 274.382 106.42 273.488 106.966H273.48C272.615 107.5 271.593 107.815 270.496 107.815C269.399 107.815 268.373 107.5 267.512 106.966C266.609 106.42 265.877 105.621 265.392 104.677C265.119 104.131 264.49 103.878 263.919 104.056C262.984 104.321 262.073 104.636 261.187 105H261.179C260.293 105.373 259.403 105.807 258.534 106.3C258.021 106.594 257.793 107.215 257.971 107.761H257.963C258.294 108.771 258.34 109.859 258.091 110.882C257.859 111.863 257.35 112.806 256.576 113.58C255.802 114.354 254.863 114.864 253.869 115.104C252.843 115.348 251.763 115.306 250.757 114.975C250.152 114.777 249.507 115.066 249.25 115.629C248.774 116.465 248.364 117.322 248 118.183L247.975 118.258C247.611 119.135 247.305 120.037 247.048 120.965C246.887 121.548 247.16 122.144 247.677 122.409C248.621 122.885 249.42 123.618 249.966 124.512C250.5 125.385 250.806 126.407 250.806 127.504C250.806 128.601 250.5 129.636 249.966 130.497C249.42 131.391 248.621 132.123 247.677 132.608C247.131 132.881 246.878 133.51 247.056 134.081C247.313 135.016 247.636 135.927 248 136.813C248.381 137.715 248.807 138.605 249.3 139.466C249.594 139.979 250.206 140.207 250.761 140.029V140.037C251.771 139.706 252.851 139.66 253.873 139.909C254.863 140.141 255.806 140.65 256.58 141.424C257.354 142.198 257.864 143.137 258.095 144.122C258.348 145.157 258.298 146.237 257.967 147.243C257.777 147.848 258.066 148.493 258.629 148.75C259.465 149.226 260.322 149.636 261.183 150C262.077 150.372 263.004 150.687 263.965 150.952C264.548 151.113 265.144 150.84 265.401 150.323C265.885 149.379 266.618 148.58 267.512 148.034H267.52C268.385 147.5 269.407 147.194 270.504 147.194C271.601 147.194 272.628 147.5 273.497 148.034C274.391 148.58 275.123 149.379 275.599 150.323C275.881 150.869 276.51 151.122 277.081 150.944C278.017 150.687 278.927 150.364 279.813 150H279.821C280.707 149.627 281.597 149.193 282.458 148.7C282.979 148.406 283.207 147.785 283.029 147.239C282.698 146.229 282.661 145.149 282.901 144.127C283.141 143.137 283.65 142.194 284.424 141.42C285.198 140.646 286.137 140.136 287.122 139.905C288.149 139.652 289.238 139.702 290.243 140.033C290.831 140.219 291.468 139.942 291.733 139.404C292.209 138.568 292.627 137.703 293 136.817C293.372 135.923 293.687 134.996 293.952 134.036C294.113 133.452 293.84 132.856 293.323 132.599C292.379 132.115 291.58 131.382 291.034 130.488V130.48C290.5 129.615 290.185 128.593 290.185 127.496C290.185 126.399 290.5 125.373 291.034 124.512C291.58 123.609 292.379 122.877 293.323 122.401C293.869 122.119 294.122 121.49 293.944 120.919C293.679 119.975 293.364 119.056 293 118.179C292.619 117.277 292.184 116.387 291.7 115.534C291.406 115.013 290.785 114.793 290.239 114.971C289.229 115.302 288.141 115.34 287.118 115.1C286.137 114.859 285.194 114.35 284.42 113.576C283.646 112.802 283.136 111.863 282.896 110.878C282.652 109.851 282.694 108.763 283.025 107.757C283.223 107.153 282.934 106.507 282.371 106.25Z"/>
</mask>
<path d="M282.371 106.25C281.543 105.782 280.686 105.364 279.809 105C278.906 104.628 277.979 104.305 277.036 104.048C276.452 103.887 275.856 104.16 275.591 104.677C275.115 105.629 274.382 106.42 273.488 106.966H273.48C272.615 107.5 271.593 107.815 270.496 107.815C269.399 107.815 268.373 107.5 267.512 106.966C266.609 106.42 265.877 105.621 265.392 104.677C265.119 104.131 264.49 103.878 263.919 104.056C262.984 104.321 262.073 104.636 261.187 105H261.179C260.293 105.373 259.403 105.807 258.534 106.3C258.021 106.594 257.793 107.215 257.971 107.761H257.963C258.294 108.771 258.34 109.859 258.091 110.882C257.859 111.863 257.35 112.806 256.576 113.58C255.802 114.354 254.863 114.864 253.869 115.104C252.843 115.348 251.763 115.306 250.757 114.975C250.152 114.777 249.507 115.066 249.25 115.629C248.774 116.465 248.364 117.322 248 118.183L247.975 118.258C247.611 119.135 247.305 120.037 247.048 120.965C246.887 121.548 247.16 122.144 247.677 122.409C248.621 122.885 249.42 123.618 249.966 124.512C250.5 125.385 250.806 126.407 250.806 127.504C250.806 128.601 250.5 129.636 249.966 130.497C249.42 131.391 248.621 132.123 247.677 132.608C247.131 132.881 246.878 133.51 247.056 134.081C247.313 135.016 247.636 135.927 248 136.813C248.381 137.715 248.807 138.605 249.3 139.466C249.594 139.979 250.206 140.207 250.761 140.029V140.037C251.771 139.706 252.851 139.66 253.873 139.909C254.863 140.141 255.806 140.65 256.58 141.424C257.354 142.198 257.864 143.137 258.095 144.122C258.348 145.157 258.298 146.237 257.967 147.243C257.777 147.848 258.066 148.493 258.629 148.75C259.465 149.226 260.322 149.636 261.183 150C262.077 150.372 263.004 150.687 263.965 150.952C264.548 151.113 265.144 150.84 265.401 150.323C265.885 149.379 266.618 148.58 267.512 148.034H267.52C268.385 147.5 269.407 147.194 270.504 147.194C271.601 147.194 272.628 147.5 273.497 148.034C274.391 148.58 275.123 149.379 275.599 150.323C275.881 150.869 276.51 151.122 277.081 150.944C278.017 150.687 278.927 150.364 279.813 150H279.821C280.707 149.627 281.597 149.193 282.458 148.7C282.979 148.406 283.207 147.785 283.029 147.239C282.698 146.229 282.661 145.149 282.901 144.127C283.141 143.137 283.65 142.194 284.424 141.42C285.198 140.646 286.137 140.136 287.122 139.905C288.149 139.652 289.238 139.702 290.243 140.033C290.831 140.219 291.468 139.942 291.733 139.404C292.209 138.568 292.627 137.703 293 136.817C293.372 135.923 293.687 134.996 293.952 134.036C294.113 133.452 293.84 132.856 293.323 132.599C292.379 132.115 291.58 131.382 291.034 130.488V130.48C290.5 129.615 290.185 128.593 290.185 127.496C290.185 126.399 290.5 125.373 291.034 124.512C291.58 123.609 292.379 122.877 293.323 122.401C293.869 122.119 294.122 121.49 293.944 120.919C293.679 119.975 293.364 119.056 293 118.179C292.619 117.277 292.184 116.387 291.7 115.534C291.406 115.013 290.785 114.793 290.239 114.971C289.229 115.302 288.141 115.34 287.118 115.1C286.137 114.859 285.194 114.35 284.42 113.576C283.646 112.802 283.136 111.863 282.896 110.878C282.652 109.851 282.694 108.763 283.025 107.757C283.223 107.153 282.934 106.507 282.371 106.25Z" stroke="url(#paint1_linear_109_416)" stroke-width="1.84314" mask="url(#path-2-inside-2_109_416)"/>
<mask id="path-3-inside-3_109_416" fill="white">
<path d="M547.381 2.44173C546.483 1.9342 545.553 1.48058 544.601 1.08535C543.622 0.681122 542.616 0.33075 541.592 0.0522869C540.958 -0.122869 540.312 0.173553 540.024 0.734963C539.508 1.76803 538.713 2.62585 537.743 3.2187H537.734C536.795 3.79806 535.686 4.13941 534.495 4.13941C533.305 4.13941 532.191 3.79808 531.257 3.2187C530.278 2.62576 529.483 1.75897 528.958 0.734963C528.661 0.142109 527.979 -0.13186 527.359 0.0612665C526.344 0.348709 525.356 0.690041 524.395 1.08527H524.386C523.425 1.48953 522.459 1.96112 521.516 2.49558C520.959 2.81441 520.712 3.48816 520.905 4.081H520.896C521.255 5.17685 521.305 6.35807 521.035 7.46742C520.784 8.53187 520.231 9.55589 519.391 10.3958C518.551 11.2356 517.532 11.7881 516.454 12.0486C515.34 12.3135 514.168 12.2686 513.077 11.9093C512.421 11.6938 511.72 12.0081 511.442 12.619C510.925 13.5262 510.481 14.4559 510.085 15.3901L510.058 15.471C509.663 16.4231 509.331 17.4022 509.052 18.4083C508.877 19.0416 509.174 19.6883 509.735 19.9758C510.759 20.4923 511.626 21.2873 512.219 22.2574C512.798 23.205 513.13 24.3144 513.13 25.5046C513.13 26.6947 512.798 27.8176 512.219 28.7517C511.626 29.7219 510.759 30.5168 509.735 31.0423C509.142 31.3387 508.868 32.0214 509.061 32.6412C509.34 33.6562 509.69 34.6443 510.085 35.6054C510.499 36.5845 510.961 37.5501 511.496 38.4843C511.814 39.0412 512.479 39.2882 513.081 39.0951V39.1041C514.177 38.7448 515.349 38.6954 516.458 38.9649C517.532 39.2164 518.556 39.7688 519.396 40.6087C520.236 41.4486 520.788 42.4681 521.04 43.5371C521.314 44.6598 521.26 45.8321 520.9 46.9235C520.694 47.5792 521.008 48.2799 521.619 48.5583C522.526 49.0748 523.456 49.5195 524.39 49.9147C525.36 50.3189 526.366 50.6603 527.408 50.9477C528.042 51.1229 528.688 50.8264 528.967 50.265C529.492 49.2409 530.287 48.3741 531.257 47.7813H531.266C532.205 47.2019 533.314 46.8696 534.505 46.8696C535.695 46.8696 536.809 47.2019 537.752 47.7813C538.722 48.3742 539.517 49.241 540.033 50.265C540.339 50.8579 541.021 51.1319 541.641 50.9387C542.656 50.6603 543.644 50.31 544.605 49.9147H544.614C545.576 49.5105 546.541 49.0389 547.475 48.5044C548.041 48.1856 548.288 47.5118 548.095 46.919C547.736 45.8232 547.696 44.6509 547.956 43.5416C548.217 42.4681 548.769 41.4441 549.609 40.6042C550.449 39.7644 551.468 39.2119 552.537 38.9604C553.651 38.6864 554.832 38.7403 555.924 39.0996C556.561 39.3017 557.253 39.0008 557.54 38.417C558.057 37.5097 558.51 36.571 558.915 35.6099C559.319 34.6397 559.66 33.6337 559.948 32.5918C560.123 31.9585 559.826 31.3117 559.265 31.0333C558.241 30.5078 557.374 29.7128 556.781 28.7427V28.7337C556.202 27.795 555.861 26.6857 555.861 25.4955C555.861 24.3052 556.202 23.1915 556.781 22.2573C557.374 21.2781 558.241 20.4832 559.265 19.9667C559.858 19.6613 560.132 18.9787 559.939 18.3589C559.651 17.3349 559.31 16.3378 558.915 15.3857C558.501 14.4065 558.03 13.4409 557.504 12.5157C557.186 11.9498 556.512 11.7118 555.919 11.9049C554.823 12.2642 553.642 12.3046 552.533 12.0441C551.468 11.7836 550.444 11.2312 549.604 10.3914C548.764 9.55145 548.212 8.53193 547.951 7.46301C547.686 6.34922 547.731 5.16797 548.091 4.07659C548.306 3.42083 547.992 2.72019 547.381 2.44173Z"/>
</mask>
<path d="M547.381 2.44173C546.483 1.9342 545.553 1.48058 544.601 1.08535C543.622 0.681122 542.616 0.33075 541.592 0.0522869C540.958 -0.122869 540.312 0.173553 540.024 0.734963C539.508 1.76803 538.713 2.62585 537.743 3.2187H537.734C536.795 3.79806 535.686 4.13941 534.495 4.13941C533.305 4.13941 532.191 3.79808 531.257 3.2187C530.278 2.62576 529.483 1.75897 528.958 0.734963C528.661 0.142109 527.979 -0.13186 527.359 0.0612665C526.344 0.348709 525.356 0.690041 524.395 1.08527H524.386C523.425 1.48953 522.459 1.96112 521.516 2.49558C520.959 2.81441 520.712 3.48816 520.905 4.081H520.896C521.255 5.17685 521.305 6.35807 521.035 7.46742C520.784 8.53187 520.231 9.55589 519.391 10.3958C518.551 11.2356 517.532 11.7881 516.454 12.0486C515.34 12.3135 514.168 12.2686 513.077 11.9093C512.421 11.6938 511.72 12.0081 511.442 12.619C510.925 13.5262 510.481 14.4559 510.085 15.3901L510.058 15.471C509.663 16.4231 509.331 17.4022 509.052 18.4083C508.877 19.0416 509.174 19.6883 509.735 19.9758C510.759 20.4923 511.626 21.2873 512.219 22.2574C512.798 23.205 513.13 24.3144 513.13 25.5046C513.13 26.6947 512.798 27.8176 512.219 28.7517C511.626 29.7219 510.759 30.5168 509.735 31.0423C509.142 31.3387 508.868 32.0214 509.061 32.6412C509.34 33.6562 509.69 34.6443 510.085 35.6054C510.499 36.5845 510.961 37.5501 511.496 38.4843C511.814 39.0412 512.479 39.2882 513.081 39.0951V39.1041C514.177 38.7448 515.349 38.6954 516.458 38.9649C517.532 39.2164 518.556 39.7688 519.396 40.6087C520.236 41.4486 520.788 42.4681 521.04 43.5371C521.314 44.6598 521.26 45.8321 520.9 46.9235C520.694 47.5792 521.008 48.2799 521.619 48.5583C522.526 49.0748 523.456 49.5195 524.39 49.9147C525.36 50.3189 526.366 50.6603 527.408 50.9477C528.042 51.1229 528.688 50.8264 528.967 50.265C529.492 49.2409 530.287 48.3741 531.257 47.7813H531.266C532.205 47.2019 533.314 46.8696 534.505 46.8696C535.695 46.8696 536.809 47.2019 537.752 47.7813C538.722 48.3742 539.517 49.241 540.033 50.265C540.339 50.8579 541.021 51.1319 541.641 50.9387C542.656 50.6603 543.644 50.31 544.605 49.9147H544.614C545.576 49.5105 546.541 49.0389 547.475 48.5044C548.041 48.1856 548.288 47.5118 548.095 46.919C547.736 45.8232 547.696 44.6509 547.956 43.5416C548.217 42.4681 548.769 41.4441 549.609 40.6042C550.449 39.7644 551.468 39.2119 552.537 38.9604C553.651 38.6864 554.832 38.7403 555.924 39.0996C556.561 39.3017 557.253 39.0008 557.54 38.417C558.057 37.5097 558.51 36.571 558.915 35.6099C559.319 34.6397 559.66 33.6337 559.948 32.5918C560.123 31.9585 559.826 31.3117 559.265 31.0333C558.241 30.5078 557.374 29.7128 556.781 28.7427V28.7337C556.202 27.795 555.861 26.6857 555.861 25.4955C555.861 24.3052 556.202 23.1915 556.781 22.2573C557.374 21.2781 558.241 20.4832 559.265 19.9667C559.858 19.6613 560.132 18.9787 559.939 18.3589C559.651 17.3349 559.31 16.3378 558.915 15.3857C558.501 14.4065 558.03 13.4409 557.504 12.5157C557.186 11.9498 556.512 11.7118 555.919 11.9049C554.823 12.2642 553.642 12.3046 552.533 12.0441C551.468 11.7836 550.444 11.2312 549.604 10.3914C548.764 9.55145 548.212 8.53193 547.951 7.46301C547.686 6.34922 547.731 5.16797 548.091 4.07659C548.306 3.42083 547.992 2.72019 547.381 2.44173Z" stroke="url(#paint2_linear_109_416)" stroke-width="2" mask="url(#path-3-inside-3_109_416)"/>
<path d="M260.5 93V60.5H188.5V23H222.5V35H196V45.5H251V23H302.5V45.5H277V72.5H320V23H338.5V80.5H302.5V131.5H357.5V98H316V88H357.5V23H397V72.5H372.5V131.5H423V23H451V88H497.5V115H451V131.5H522V76.5H477.5V12H497.5" stroke="#2E2E2E" stroke-width="2"/>
<path d="M66 21.5H96.5V38.5H66V80H118.5V21.5H173V71H152.5V38.5H134V66V105.5H53.5V66H6.5V171H47V142.5H22.5V90.5H39.5V128H96.5V171H169V101H211V142.5H195V117.5H180V171H232V128H241" stroke="#2E2E2E" stroke-width="2"/>
<defs>
<linearGradient id="paint0_linear_109_416" x1="25.5" y1="0" x2="25.5" y2="51" gradientUnits="userSpaceOnUse">
<stop stop-color="#E7964C"/>
<stop offset="1" stop-color="#9F6CF2"/>
</linearGradient>
<linearGradient id="paint1_linear_109_416" x1="270.5" y1="104" x2="270.5" y2="151" gradientUnits="userSpaceOnUse">
<stop stop-color="#E7964C"/>
<stop offset="1" stop-color="#9F6CF2"/>
</linearGradient>
<linearGradient id="paint2_linear_109_416" x1="534.5" y1="0" x2="534.5" y2="51" gradientUnits="userSpaceOnUse">
<stop stop-color="#E7964C"/>
<stop offset="1" stop-color="#9F6CF2"/>
</linearGradient>
</defs>
</svg>
