<svg width="105" height="94" viewBox="0 0 105 94" fill="none" xmlns="http://www.w3.org/2000/svg">
<path d="M95.8183 0H8.22702C3.69066 0 0 3.69066 0 8.22702V71.6094C0 76.1458 3.69066 79.8364 8.22702 79.8364H41.1799L37.2716 90.7485H29.9518C29.0528 90.7485 28.3261 91.4752 28.3261 92.3743C28.3261 93.2734 29.0528 94 29.9518 94H38.4006H38.4129H38.4212H65.6189H65.6272H65.6395H74.0883C74.9873 94 75.714 93.2734 75.714 92.3743C75.714 91.4752 74.9873 90.7485 74.0883 90.7485H66.7685L62.8685 79.8364H95.8182C100.355 79.8364 104.045 76.1458 104.045 71.6094V8.22702C104.045 3.69066 100.355 0 95.8183 0ZM63.3247 90.7441H40.7248L44.6331 79.832L59.4201 79.8361L63.3247 90.7441ZM100.794 71.6093C100.794 74.3517 98.5602 76.585 95.8178 76.585H8.2266C5.48423 76.585 3.25094 74.3517 3.25094 71.6093V8.22692C3.25094 5.48454 5.48423 3.25125 8.2266 3.25125H95.8221C98.5644 3.25125 100.798 5.48454 100.798 8.22692V71.6093H100.794ZM93.5764 8.26791H10.4685C9.56945 8.26791 8.84278 8.99455 8.84278 9.89364V69.9508C8.84278 70.8498 9.56943 71.5765 10.4685 71.5765H93.5806C94.4796 71.5765 95.2063 70.8499 95.2063 69.9508L95.2022 9.89048C95.2022 8.99553 94.4754 8.26791 93.5764 8.26791ZM91.9547 68.325H12.0943L12.0902 11.5154H91.9506L91.9547 68.325ZM52.0224 50.4503C61.1938 50.4503 68.6528 42.9868 68.6528 33.8157C68.6528 24.6444 61.1934 17.1853 52.0224 17.1853C42.8514 17.1853 35.392 24.6447 35.392 33.8157C35.392 42.987 42.8514 50.4503 52.0224 50.4503ZM52.0224 20.4328C59.3997 20.4328 65.4054 26.4347 65.4054 33.8157C65.4054 41.197 59.4034 47.2028 52.0224 47.2028C44.6452 47.2028 38.6395 41.1968 38.6395 33.8157C38.6395 26.4344 44.6455 20.4328 52.0224 20.4328ZM46.5624 42.4987C47.0673 42.7861 47.6215 42.9339 48.1758 42.9339C48.7301 42.9339 49.2884 42.7902 49.7975 42.4987L59.9704 36.6241C60.9844 36.0411 61.588 34.9902 61.588 33.816C61.588 32.6419 60.9804 31.595 59.9704 31.0162L49.7934 25.1373C48.7834 24.5584 47.5765 24.5584 46.5543 25.1455C45.5444 25.7367 44.9451 26.7835 44.9451 27.9454V39.6909C44.9368 40.8568 45.5401 41.9035 46.5624 42.4987ZM48.1881 27.9619L58.3241 33.816L48.1881 39.6702V27.9619ZM23.0639 58.7476H27.2307V59.9177C27.2307 61.4284 28.4623 62.66 29.9731 62.66H34.9569C36.4677 62.66 37.6993 61.4284 37.6993 59.9177V58.7476H80.9821C81.8811 58.7476 82.6078 58.021 82.6078 57.1219C82.6078 56.2228 81.8812 55.4962 80.9821 55.4962H37.6951V54.9337C37.6951 53.423 36.4635 52.1914 34.9527 52.1914H29.9689C28.4581 52.1914 27.2265 53.423 27.2265 54.9337V55.4962H23.0596C22.1606 55.4962 21.4339 56.2228 21.4339 57.1219C21.4421 58.021 22.1689 58.7476 23.0639 58.7476ZM30.4781 55.4388H34.4479V59.4086H30.4781V55.4388Z" fill="url(#paint0_linear_107_327)"/>
<defs>
<linearGradient id="paint0_linear_107_327" x1="52.0226" y1="0" x2="52.0226" y2="94" gradientUnits="userSpaceOnUse">
<stop stop-color="#9F6CF2"/>
<stop offset="1" stop-color="#E7964C"/>
</linearGradient>
</defs>
</svg>
